PathFileType	4	(X/Y/Z)	 s04c0403.trc
DataRate	CameraRate	NumFrames	NumMarkers	Units	OrigDataRate	OrigDataStartFrame	OrigNumFrames
200	200	4	50	mm	200	1251	2000
Frame#	Time	racr			lacr			c7			jug			rlel			rdr			llel			ldr			s2			lic			ric			lasi			rasi			rpsi			lpsi			rgt			lgt			rth1			rth2			rth3			rth4			rlfc			rmfc			rsh1			rsh2			rsh3			rsh4			rlmal			rmmal			rcal			rtoe			rmt5			lth1			lth2			lth4			lth3			llfc			lmfc			lsh1			lsh2			lsh3			lsh4			llmal			lmmal			lcal			ltoe			lmt5			SBIKE			LBIKE			RBIKE			
		X1	Y1	Z1	X2	Y2	Z2	X3	Y3	Z3	X4	Y4	Z4	X5	Y5	Z5	X6	Y6	Z6	X7	Y7	Z7	X8	Y8	Z8	X9	Y9	Z9	X10	Y10	Z10	X11	Y11	Z11	X12	Y12	Z12	X13	Y13	Z13	X14	Y14	Z14	X15	Y15	Z15	X16	Y16	Z16	X17	Y17	Z17	X18	Y18	Z18	X19	Y19	Z19	X20	Y20	Z20	X21	Y21	Z21	X22	Y22	Z22	X23	Y23	Z23	X24	Y24	Z24	X25	Y25	Z25	X26	Y26	Z26	X27	Y27	Z27	X28	Y28	Z28	X29	Y29	Z29	X30	Y30	Z30	X31	Y31	Z31	X32	Y32	Z32	X33	Y33	Z33	X34	Y34	Z34	X35	Y35	Z35	X36	Y36	Z36	X37	Y37	Z37	X38	Y38	Z38	X39	Y39	Z39	X40	Y40	Z40	X41	Y41	Z41	X42	Y42	Z42	X43	Y43	Z43	X44	Y44	Z44	X45	Y45	Z45	X46	Y46	Z46	X47	Y47	Z47	X48	Y48	Z48	X49	Y49	Z49	X50	Y50	Z50	
1251	6.2550	858.134402	1278.387330	-111.525969	865.829790	1219.969979	-432.130094	891.218892	1336.006661	-280.343865	817.736862	1195.636609	-267.318169	589.436276	1170.086065	50.764336	707.316083	939.997441	-46.498640	623.732126	1154.180306	-604.028978	702.953222	949.048165	-474.190960	288.621436	1288.997078	-210.380691	408.760876	1277.601477	-385.043592	460.074333	1233.055767	-70.885459	448.815985	1222.680300	-357.345424	475.695728	1174.140343	-124.258052	338.205775	1315.351693	-168.702695	326.366774	1331.085786	-241.325563	385.520728	1182.998500	-54.469730	371.843209	1207.478538	-416.332377	396.102348	1022.599520	-39.545522	411.428224	936.599708	-51.306028	385.653356	855.352036	-57.658974	445.007947	936.611763	-67.586054	370.861087	707.802252	-88.645470	339.132341	700.313806	-200.296863	291.147961	609.374871	-62.671572	260.108815	525.496251	-81.084394	192.401135	472.509004	-87.979702	287.804211	511.215765	-104.417741	116.285356	337.270641	-96.823758	137.512415	339.205906	-181.288770	51.258718	359.003891	-130.825235	254.404077	135.921123	-164.359210	195.092290	159.866114	-100.805713	422.171748	1134.800194	-423.947266	498.335502	1093.464397	-430.183415	523.373458	1117.918487	-418.455148	544.951664	1018.223856	-438.547605	639.749765	892.749646	-428.083151	666.930295	858.283210	-315.741679	573.757628	804.552151	-452.705492	525.488837	733.077374	-436.343689	446.110004	692.405063	-436.200986	545.933449	712.962515	-409.706892	331.683700	595.263840	-433.002713	NaN	NaN	NaN	250.771480	623.306830	-395.384728	479.332478	425.510001	-393.344256	403.816318	441.565378	-458.386682	-176.417365	934.566935	-278.971771	-3.147074	86.094263	-484.391549	-15.009456	80.660813	-84.002559	
1252	6.2600	857.473294	1278.552848	-111.668751	864.653591	1218.368422	-431.678034	891.264979	1335.077603	-280.174139	816.290944	1195.557928	-266.776299	588.908178	1169.991794	50.680463	707.181392	940.021433	-46.416611	623.674498	1154.021862	-605.264816	702.780763	949.247649	-474.678953	288.697558	1290.844531	-212.174405	409.202427	1277.476769	-385.749120	459.392921	1235.824820	-71.572896	448.079121	1222.128822	-357.431648	475.456310	1176.068100	-123.851936	338.664318	1317.108964	-171.371046	326.650837	1332.947011	-243.058160	385.368859	1185.262158	-54.694737	372.201910	1208.543957	-417.076668	399.667581	1023.774705	-40.792507	417.149729	938.140292	-52.913051	393.653576	856.184451	-58.795085	450.411335	939.113372	-69.708326	380.979910	708.682824	-88.849417	349.438685	701.613370	-199.975945	297.415055	612.755570	-62.801999	263.665330	529.964461	-81.407040	194.153446	479.256253	-88.735507	290.504303	514.768836	-105.057496	112.690306	346.330346	-98.307731	135.469665	347.754476	-182.622501	48.500044	370.124574	-134.273287	245.526811	140.055730	-162.946007	186.095333	166.636797	-100.495753	420.357823	1135.012408	-424.749254	495.797358	1092.484955	-430.485097	520.972372	1117.136481	-419.266568	541.237838	1016.497073	-438.648160	636.260715	888.297185	-428.143727	663.111643	854.756646	-316.074892	570.852813	798.978289	-452.270552	523.855068	726.822723	-436.781875	445.246043	684.695180	-436.733105	544.641195	707.045040	-410.112752	332.673668	585.930573	-433.808964	NaN	NaN	NaN	250.401285	610.616944	-396.414725	487.493346	423.325217	-393.583748	411.363730	435.486552	-458.698229	-176.419390	934.579576	-279.186098	-3.137175	86.072453	-484.412835	-14.992824	80.702163	-84.008682	
1253	6.2650	856.839468	1278.694305	-111.458860	863.340191	1217.366207	-431.098515	891.289426	1334.619231	-279.784532	814.897228	1195.901592	-266.319108	588.323698	1169.804720	50.731251	707.061461	940.053588	-46.308419	623.548172	1153.917370	-606.418741	702.575910	949.393392	-475.236687	288.831352	1292.453304	-214.200637	409.673508	1277.158679	-386.612062	458.439765	1239.292909	-71.248618	447.355871	1221.397333	-357.695900	475.205556	1178.005444	-123.398121	339.040641	1318.753994	-174.300116	326.613554	1334.415790	-244.850035	385.300925	1187.599751	-54.952677	371.823870	1209.176151	-417.471855	403.727820	1024.986367	-41.887880	423.339719	939.887248	-54.580482	401.939228	857.363242	-59.992145	456.469260	941.956453	-71.860263	391.575208	709.972810	-88.919193	360.508314	703.047391	-199.962757	304.151894	616.380323	-62.951937	267.739654	534.709964	-81.877043	196.563493	486.509598	-89.562003	294.184038	518.858130	-105.625778	110.022952	356.055949	-99.828601	134.159606	356.629978	-184.261828	46.810332	381.464818	-137.680274	236.553391	144.196570	-161.563183	177.890552	174.127484	-100.217017	418.470268	1134.583767	-425.413125	493.040483	1090.861872	-431.066978	518.953486	1114.751887	-419.965386	537.222664	1014.032053	-438.986610	632.803181	883.969971	-427.511769	658.589568	850.327262	-316.574650	567.465584	792.323022	-452.883606	521.839486	719.268559	-437.199847	443.946169	675.770978	-437.129600	542.811924	700.047627	-410.401481	333.303240	575.760877	-434.774815	NaN	NaN	NaN	249.712541	597.009491	-397.144575	494.941253	420.436311	-393.942257	418.328852	428.869695	-459.088916	-176.323656	934.585106	-279.380009	-3.136599	86.045571	-484.428625	-14.979746	80.725602	-84.024146	
1254	6.2700	856.092446	1278.851031	-110.914981	862.052341	1216.840787	-430.413173	891.198757	1334.368420	-278.975040	813.469571	1196.409644	-265.613047	587.644061	1169.616060	50.877275	706.952828	940.063072	-46.182730	623.316408	1153.791963	-607.407582	702.213691	949.382516	-475.631309	288.969846	1293.999976	-216.173178	410.115101	1276.578262	-387.775741	457.231267	1241.602680	-72.125331	446.729408	1220.517471	-358.266447	474.975618	1179.914808	-123.031953	339.226433	1320.168150	-177.226780	326.640221	1335.639893	-246.848590	385.850635	1189.881392	-54.886203	371.232930	1209.297135	-417.972281	408.110256	1026.524325	-42.814295	429.885825	942.041940	-56.240854	410.983275	858.758438	-61.050156	462.521521	944.991483	-74.258873	402.314808	711.501943	-88.878756	372.068892	704.447399	-200.049139	311.245653	620.262624	-63.259688	272.231892	539.937977	-82.395570	199.525817	494.098295	-90.523558	298.216793	523.205471	-106.359038	108.371210	366.160831	-101.497236	133.472752	365.746701	-185.921782	46.476688	393.287214	-141.763984	228.140901	148.783403	-160.101988	169.532381	182.142319	-100.484664	416.466045	1133.322550	-426.050824	490.275899	1088.388039	-431.836835	516.534072	1111.866169	-421.237845	533.150541	1010.681770	-439.397012	627.745193	878.761838	-427.456698	653.489057	845.111322	-317.217674	563.817909	784.384116	-453.901413	519.475660	710.694104	-437.599065	442.388375	665.879068	-437.476326	540.769378	692.098858	-410.539457	333.599406	564.375123	-435.125225	NaN	NaN	NaN	248.951725	582.679301	-397.599015	501.849458	416.840253	-394.326858	424.911742	421.639319	-459.396108	-176.253131	934.598954	-279.590821	-3.128176	85.984195	-484.464392	-14.958801	80.774231	-84.040541	
